<svg xmlns="http://www.w3.org/2000/svg" viewBox="0 0 256 257" preserveAspectRatio="xMidYMid">
  <defs>
    <linearGradient id="a" x1="-.828%" x2="57.636%" y1="7.652%" y2="78.411%">
      <stop offset="0%" stop-color="#41D1FF"/>
      <stop offset="100%" stop-color="#BD34FE"/>
    </linearGradient>
    <linearGradient id="b" x1="43.376%" x2="50.316%" y1="2.242%" y2="89.03%">
      <stop offset="0%" stop-color="#FFEA83"/>
      <stop offset="8.333%" stop-color="#FFDD35"/>
      <stop offset="100%" stop-color="#FFA800"/>
    </linearGradient>
  </defs>
  <path fill="url(#a)" d="M255.153 37.938 134.897 252.976c-2.483 4.44-8.862 4.466-11.382.048L.875 37.958c-2.746-4.814 1.371-10.646 6.827-9.67l120.385 21.517a6.537 6.537 0 0 0 2.322-.004l117.867-21.483c5.438-.992 9.574 4.796 6.877 9.62Z"/>
  <path fill="url(#b)" d="m185.432.063-94.276 17.14a3.268 3.268 0 0 0-2.634 3.014l-5.474 92.456a3.268 3.268 0 0 0 3.997 3.378l26.06-5.88c2.318-.523 4.413 1.507 3.936 3.838l-7.753 38.479c-.495 2.455 1.782 4.57 4.199 3.78l16.108-5.3c2.426-.799 4.964 1.129 4.487 3.64l-11.602 62.014c-.732 3.914 4.473 5.966 6.723 2.59l1.313-2.028 71.707-143.818c1.215-2.437-.88-5.186-3.54-4.672l-26.819 5.094c-2.396.455-4.435-1.77-3.759-4.114l17.242-60.046c.677-2.357-1.37-4.583-3.769-4.113Z"/>
</svg>
